<?xml version="1.0" encoding="UTF-8" standalone="no"?>
<!-- Created with Inkscape (http://www.inkscape.org/) -->

<svg
   width="565.08655"
   height="186.25284"
   viewBox="0 0 149.51249 49.279397"
   version="1.1"
   id="svg1"
   inkscape:version="1.4 (86a8ad7, 2024-10-11)"
   sodipodi:docname="logoblanco.svg"
   xmlns:inkscape="http://www.inkscape.org/namespaces/inkscape"
   xmlns:sodipodi="http://sodipodi.sourceforge.net/DTD/sodipodi-0.dtd"
   xmlns="http://www.w3.org/2000/svg"
   xmlns:svg="http://www.w3.org/2000/svg">
  <sodipodi:namedview
     id="namedview1"
     pagecolor="#ffffff"
     bordercolor="#000000"
     borderopacity="0.25"
     inkscape:showpageshadow="true"
     inkscape:pageopacity="0.0"
     inkscape:pagecheckerboard="true"
     inkscape:deskcolor="#d1d1d1"
     inkscape:document-units="mm"
     inkscape:zoom="1.2026515"
     inkscape:cx="247.37008"
     inkscape:cy="37.833071"
     inkscape:window-width="1600"
     inkscape:window-height="877"
     inkscape:window-x="1592"
     inkscape:window-y="-8"
     inkscape:window-maximized="1"
     inkscape:current-layer="layer1"
     inkscape:antialias-rendering="true"
     labelstyle="default"
     showborder="true"
     borderlayer="true"
     inkscape:lockguides="false" />
  <defs
     id="defs1">
    <rect
       x="294.8602"
       y="438.02759"
       width="83.195847"
       height="19.108585"
       id="rect2" />
  </defs>
  <g
     inkscape:label="Capa 1"
     inkscape:groupmode="layer"
     id="layer1"
     transform="translate(-31.681508,-108.42819)">
    <text
       xml:space="preserve"
       style="font-style:normal;font-variant:normal;font-weight:bold;font-stretch:normal;font-size:3.175px;font-family:'League Spartan';-inkscape-font-specification:'League Spartan Bold';text-align:start;writing-mode:lr-tb;direction:ltr;text-anchor:start;fill:#000000;stroke-width:0.264583"
       x="52.359997"
       y="109.99999"
       id="text1"><tspan
         sodipodi:role="line"
         id="tspan1"
         x="52.359997"
         y="109.99999"
         style="stroke-width:0.264583">        </tspan></text>
    <text
       xml:space="preserve"
       transform="scale(0.26458333)"
       id="text2"
       style="font-style:normal;font-variant:normal;font-weight:bold;font-stretch:normal;font-family:'League Spartan';-inkscape-font-specification:'League Spartan Bold';text-align:start;writing-mode:lr-tb;direction:ltr;white-space:pre;shape-inside:url(#rect2);display:inline;fill:#000000" />
    <path
       id="text4"
       style="font-style:normal;font-variant:normal;font-weight:bold;font-stretch:normal;font-size:39.394px;font-family:'League Spartan';-inkscape-font-specification:'League Spartan Bold';text-align:start;letter-spacing:-2.88527px;writing-mode:lr-tb;direction:ltr;text-anchor:start;fill:#ffffff;stroke-width:0.577054;fill-opacity:1"
       d="m 153.58828,108.42819 c -2.28485,0 -4.13618,1.85133 -4.13618,4.13618 0,2.28485 1.85133,4.1367 4.13618,4.1367 2.28485,0 4.13618,-1.85185 4.13618,-4.1367 0,-2.28485 -1.85133,-4.13618 -4.13618,-4.13618 z M 42.790391,120.32514 c -6.106071,0 -11.108883,4.80601 -11.108883,10.71511 0,5.8697 5.002812,10.67583 11.108883,10.67583 4.490916,0 8.194095,-1.45753 10.478947,-5.27875 l -5.042587,-2.52129 c -1.693942,1.81212 -2.678789,2.24534 -4.924247,2.24534 -1.77273,0 -4.372343,-1.06333 -4.372343,-4.17545 h 14.654403 c 0.03939,-0.23637 0.03927,-0.66993 0.03927,-0.94568 0,-7.09092 -4.687983,-10.71511 -10.833447,-10.71511 z m 19.8453,0 c -5.31819,0 -8.824268,2.36349 -8.824268,6.49986 0,3.03334 2.04842,4.45179 4.096908,5.51543 2.284852,1.18182 4.491199,1.29987 4.491199,2.75745 0,1.3394 -1.181943,1.45779 -2.166793,1.45779 -2.245458,0 -5.003312,-2.3244 -5.003312,-2.3244 l -2.836003,4.76663 c 0,0 2.915185,2.71818 7.800041,2.71818 4.13637,0 9.572542,-0.94566 9.572542,-6.89415 0,-4.13637 -3.466569,-5.63332 -6.145361,-6.46059 -1.733336,-0.55152 -3.151746,-0.86648 -3.151746,-1.93011 0,-0.94546 0.630427,-1.22112 2.166793,-1.22112 2.127276,0 4.490682,1.26039 4.490682,1.26039 l 2.285132,-4.56975 c 0,0 -2.875808,-1.57561 -6.775814,-1.57561 z m 16.496667,0 c -5.31819,0 -8.824267,2.36349 -8.824267,6.49986 0,3.03334 2.048419,4.45179 4.096907,5.51543 2.284852,1.18182 4.491199,1.29987 4.491199,2.75745 0,1.3394 -1.181943,1.45779 -2.166793,1.45779 -2.245458,0 -5.003312,-2.3244 -5.003312,-2.3244 l -2.836002,4.76663 c 0,0 2.915184,2.71818 7.80004,2.71818 4.060092,0 9.359899,-0.92299 9.554456,-6.58203 1.681003,3.85415 5.651802,6.58203 10.251054,6.58203 4.49092,0 8.19409,-1.45753 10.47895,-5.27875 l -5.04259,-2.52129 c -1.69394,1.81212 -2.678789,2.24534 -4.924247,2.24534 -1.77273,0 -4.37286,-1.06333 -4.37286,-4.17545 H 107.2893 c 0.0394,-0.23637 0.0398,-0.66993 0.0398,-0.94568 0,-7.09092 -4.68799,-10.71511 -10.83345,-10.71511 -6.10607,0 -11.1094,4.80601 -11.1094,10.71511 0,0.25491 0.02175,0.50491 0.04031,0.75551 -1.185534,-1.92087 -3.429371,-2.85387 -5.309237,-3.43442 -1.733336,-0.55152 -3.151745,-0.86648 -3.151745,-1.93011 0,-0.94546 0.630426,-1.22112 2.166792,-1.22112 2.127276,0 4.490682,1.26039 4.490682,1.26039 l 2.285132,-4.56975 c 0,0 -2.875807,-1.57561 -6.775814,-1.57561 z m 41.344762,0 c -2.20606,0 -4.2151,1.14242 -5.79086,2.71818 h -0.0791 v -2.127 h -6.97271 v 20.2091 h 6.97271 v -11.42463 c 0,-2.00909 2.04881,-3.93929 4.13669,-3.93929 2.24546,0 3.62407,1.9302 3.62407,3.93929 v 11.42463 h 6.9727 20.1998 v -5.31854 h -9.21855 l 9.68157,-14.40739 v -0.48317 h -19.72696 v 5.31802 h 8.35143 l -9.28729,13.82138 v -12.24577 c 0,-5.63334 -5.1605,-7.48481 -8.86354,-7.48481 z m 29.52636,1.07435 v 19.72593 h 6.97271 v -20.2091 h -6.64818 z m 17.59945,-1.07435 c -5.9091,0 -10.04538,4.80601 -10.04538,10.71511 0,5.9091 4.13628,10.67583 10.04538,10.67583 2.75758,0 5.12123,-1.22124 6.6182,-2.87579 h 0.0791 v 2.28513 h 6.89364 v -20.2091 h -6.9727 v 1.93011 c -1.65455,-1.61515 -3.90002,-2.52129 -6.6182,-2.52129 z m -124.615135,4.53047 c 2.048488,0 3.505803,1.14229 3.820955,3.26957 h -7.681702 c 0.118182,-1.85152 1.457713,-3.26957 3.860747,-3.26957 z m 53.704732,0 c 2.048488,0 3.506323,1.14229 3.821473,3.26957 h -7.682219 c 0.118182,-1.85152 1.457712,-3.26957 3.860746,-3.26957 z m 72.998643,1.418 c 2.60001,0 4.68757,1.96966 4.68757,4.76664 0,2.75758 -1.96938,4.72736 -4.68757,4.72736 -2.83637,0 -4.72736,-1.96978 -4.72736,-4.72736 0,-2.79698 2.08796,-4.76664 4.72736,-4.76664 z" />
    <text
       xml:space="preserve"
       style="font-style:normal;font-variant:normal;font-weight:bold;font-stretch:normal;font-size:18.0624px;font-family:'League Spartan';-inkscape-font-specification:'League Spartan Bold';text-align:start;letter-spacing:-1.32292px;writing-mode:lr-tb;direction:ltr;text-anchor:start;fill:#000000;stroke-width:0.264583"
       x="73.425964"
       y="154.31898"
       id="text6"><tspan
         sodipodi:role="line"
         id="tspan6"
         x="73.425964"
         y="154.31898"
         style="stroke-width:0.264583" /></text>
    <path
       d="m 65.126798,157.02179 q 0,0.2667 -0.2159,0.4699 -0.2032,0.2159 -0.4953,0.2159 -0.2794,0 -0.4826,-0.2159 -0.2032,-0.2032 -0.2032,-0.4699 v -7.3787 q 0,-0.2794 0.1905,-0.4699 0.2032,-0.2032 0.4699,-0.2032 0.2794,0 0.4699,0.1524 0.2032,0.1524 0.2413,0.3683 0.8001,-0.5207 1.7272,-0.5207 1.27,0 2.1717,0.9398 0.9017,0.9398 0.9017,2.2479 0,1.3081 -0.9017,2.2352 -0.9017,0.9144 -2.1717,0.9144 -0.9779,0 -1.7018,-0.5207 z m 2.8956,-6.1468 q -0.4953,-0.5207 -1.2065,-0.5207 -0.7112,0 -1.2065,0.5334 -0.4826,0.5207 -0.4826,1.3081 0,0.7874 0.4953,1.2319 0.4826,0.5334 1.1811,0.5334 0.7112,0 1.2065,-0.5334 0.508,-0.5334 0.508,-1.2573 0,-0.7366 -0.4953,-1.2954 z m 12.450229,1.1049 q 0,0.2794 -0.1905,0.4572 -0.1778,0.1651 -0.4826,0.1651 h -4.0386 q 0.1143,0.5461 0.4318,0.8382 0.4064,0.4699 1.1811,0.5715 0.7874,0.0889 1.3589,-0.3175 0.1905,-0.2032 0.508,-0.2032 0.3175,0 0.4445,0.1651 0.3556,0.3937 0,0.8255 -0.9144,0.8382 -2.2479,0.8382 -1.3208,-0.0127 -2.2225,-0.9398 -0.889,-0.9271 -0.9017,-2.2352 0.0127,-1.3081 0.9017,-2.2352 0.9017,-0.9398 2.1717,-0.9398 1.27,0 2.1336,0.8382 0.8763,0.8255 0.9525,2.1082 z m -3.0607,-1.8034 q -0.7366,0.0381 -1.1811,0.4572 -0.4445,0.4191 -0.5334,0.889 h 3.5941 q -0.1143,-0.4445 -0.6223,-0.8636 -0.4953,-0.4191 -1.2573,-0.4826 z m 9.097419,-0.4445 q 0.2921,-0.3429 0.8001,-0.5461 0.508,-0.2159 0.9271,-0.2032 0.4191,0 0.6096,0.1905 0.2032,0.1905 0.2032,0.4699 0,0.2667 -0.2032,0.4699 -0.1905,0.2032 -0.4699,0.2032 -1.1811,0 -1.8669,1.9177 v 2.413 q 0,0.2794 -0.2032,0.4826 -0.2032,0.1905 -0.4953,0.1905 -0.2794,0 -0.4826,-0.1905 -0.1905,-0.2032 -0.1905,-0.4826 v -5.0038 q 0,-0.2794 0.1905,-0.4699 0.2032,-0.1905 0.4826,-0.1905 0.2921,0 0.4953,0.1905 0.2032,0.1905 0.2032,0.4699 z m 10.151521,-2.6035 q 0,0.2794 -0.2032,0.4953 -0.2032,0.2032 -0.5207,0.2032 -0.3048,0 -0.381,0.0762 -0.0508,0 -0.0889,0.2159 -0.0254,0.2159 -0.0254,0.4318 v 0.1778 h 0.381 q 0.2921,0 0.4953,0.2032 0.2032,0.2032 0.2032,0.4953 0,0.2794 -0.2032,0.4953 -0.2032,0.2032 -0.4953,0.2032 h -0.381 v 4.4831 q 0,0.2921 -0.2032,0.4953 -0.2032,0.2032 -0.4953,0.2032 -0.2921,0 -0.4953,-0.2032 -0.2032,-0.2032 -0.2032,-0.4953 v -4.4831 h -0.3302 q -0.2921,0 -0.508,-0.2032 -0.2032,-0.2032 -0.2032,-0.4953 0,-0.2921 0.2032,-0.4953 0.2159,-0.2032 0.508,-0.2032 h 0.3302 v -0.1778 q 0,-2.1336 1.9177,-2.1336 0.2794,0 0.4826,0.2159 0.2159,0.2032 0.2159,0.4953 z m 9.135523,5.5499 q 0,1.0795 -0.8001,1.8669 -0.7874,0.7747 -1.8796,0.7747 -1.0795,0 -1.8669,-0.7747 -0.7747,-0.7747 -0.7747,-1.8669 v -3.0353 q 0,-0.2667 0.1905,-0.4699 0.2032,-0.2032 0.4826,-0.2032 0.2794,0 0.4699,0.2032 0.2032,0.2032 0.2032,0.4699 v 3.0353 q 0,0.5461 0.3683,0.9271 0.381,0.3683 0.9271,0.3683 0.5461,0 0.9271,-0.3683 0.3937,-0.381 0.4064,-0.9271 v -3.0353 q 0,-0.2667 0.1905,-0.4699 0.1905,-0.2032 0.4572,-0.2032 0.2794,0 0.4826,0.2032 0.2159,0.2032 0.2159,0.4699 z m 5.90974,2.6416 -0.127,-0.0127 q -0.2413,-0.0635 -0.3937,-0.2413 -0.1524,-0.1778 -0.1524,-0.4191 v -4.9911 q 0,-0.2921 0.1905,-0.4826 0.2032,-0.2032 0.4826,-0.2032 0.4445,0 0.6096,0.381 0.6477,-0.381 1.3589,-0.381 1.2192,0 1.9939,0.8763 0.7493,-0.8763 1.9177,-0.8763 1.1684,0 1.9431,0.7874 0.7747,0.7747 0.7747,1.8796 v 3.0099 q 0,0.2794 -0.2032,0.4826 -0.1905,0.1905 -0.4699,0.1905 -0.2794,0 -0.4826,-0.1905 -0.2032,-0.2032 -0.2032,-0.4826 v -3.0099 q 0,-0.5461 -0.381,-0.9271 -0.381,-0.381 -0.9144,-0.381 -0.5207,0 -0.9017,0.3683 -0.381,0.3683 -0.4064,0.9017 v 3.048 q 0,0.2794 -0.2032,0.4826 -0.1905,0.1905 -0.4699,0.1905 -0.2667,0 -0.4826,-0.2032 -0.2032,-0.2032 -0.2032,-0.4699 v -3.048 q -0.0127,-0.5207 -0.3937,-0.889 -0.381,-0.381 -0.9144,-0.381 -0.5207,0 -0.9017,0.381 -0.381,0.381 -0.381,0.9271 v 3.0099 l -0.0127,0.0889 v 0.0381 l -0.0381,0.0762 v 0.0635 q -0.2032,0.4064 -0.635,0.4064 z m 19.76543,-3.3401 q 0,0.2794 -0.1905,0.4572 -0.1778,0.1651 -0.4826,0.1651 h -4.0386 q 0.1143,0.5461 0.4318,0.8382 0.4064,0.4699 1.1811,0.5715 0.7874,0.0889 1.3589,-0.3175 0.1905,-0.2032 0.508,-0.2032 0.3175,0 0.4445,0.1651 0.3556,0.3937 0,0.8255 -0.9144,0.8382 -2.2479,0.8382 -1.3208,-0.0127 -2.2225,-0.9398 -0.889,-0.9271 -0.9017,-2.2352 0.0127,-1.3081 0.9017,-2.2352 0.9017,-0.9398 2.1717,-0.9398 1.27,0 2.1336,0.8382 0.8763,0.8255 0.9525,2.1082 z m -3.0607,-1.8034 q -0.7366,0.0381 -1.1811,0.4572 -0.4445,0.4191 -0.5334,0.889 h 3.5941 q -0.1143,-0.4445 -0.6223,-0.8636 -0.4953,-0.4191 -1.2573,-0.4826 z m 9.09742,-0.4445 q 0.2921,-0.3429 0.8001,-0.5461 0.508,-0.2159 0.9271,-0.2032 0.4191,0 0.6096,0.1905 0.2032,0.1905 0.2032,0.4699 0,0.2667 -0.2032,0.4699 -0.1905,0.2032 -0.4699,0.2032 -1.1811,0 -1.8669,1.9177 v 2.413 q 0,0.2794 -0.2032,0.4826 -0.2032,0.1905 -0.4953,0.1905 -0.2794,0 -0.4826,-0.1905 -0.1905,-0.2032 -0.1905,-0.4826 v -5.0038 q 0,-0.2794 0.1905,-0.4699 0.2032,-0.1905 0.4826,-0.1905 0.2921,0 0.4953,0.1905 0.2032,0.1905 0.2032,0.4699 z m 10.48172,-0.5715 q 0.1905,-0.1905 0.4699,-0.1905 0.2794,0 0.4826,0.2032 0.2032,0.1905 0.2032,0.4699 v 4.8006 q 0,1.27 -0.889,2.1463 -0.8763,0.889 -2.1463,0.889 -0.6731,0 -1.3081,-0.3175 -0.2667,-0.1143 -0.3556,-0.381 -0.0889,-0.254 0.0254,-0.5207 0.127,-0.2286 0.3937,-0.3175 0.2794,-0.0889 0.5842,0.0635 0.3048,0.1524 0.762,0.1397 0.4572,0 0.889,-0.3302 0.4445,-0.3175 0.5969,-0.8128 -0.5334,0.3048 -1.2065,0.3048 -1.0922,0 -1.8796,-0.7874 -0.7747,-0.7874 -0.7747,-1.8796 v -2.9972 q 0,-0.2794 0.1905,-0.4699 0.2032,-0.2032 0.4826,-0.2032 0.2794,0 0.4699,0.1905 0.1905,0.1905 0.1905,0.4826 v 2.9972 q 0,0.5461 0.381,0.9271 0.3937,0.3683 0.9398,0.3683 0.5461,0 0.9271,-0.3683 0.381,-0.381 0.381,-0.9271 v -2.9972 q 0,-0.2921 0.1905,-0.4826 z"
       id="text3"
       style="font-weight:bold;font-size:12.7px;font-family:Quicksand;-inkscape-font-specification:'Quicksand Bold';letter-spacing:2.64583px;stroke-width:0.264583;fill:#ffffff;fill-opacity:1"
       aria-label="perfumery" />
  </g>
</svg>
